<svg width="20" height="20" viewBox="0 0 20 20" fill="none" xmlns="http://www.w3.org/2000/svg">
<path d="M9.16684 4.5833C9.16702 5.28478 8.91437 5.96284 8.45521 6.49317C7.99605 7.0235 7.36113 7.37059 6.66684 7.4708V9.5833H11.8752C12.3725 9.5833 12.8494 9.38575 13.201 9.03412C13.5526 8.68249 13.7502 8.20558 13.7502 7.7083V7.37913C13.0804 7.17728 12.5055 6.74159 12.13 6.15142C11.7546 5.56124 11.6036 4.85584 11.7046 4.16369C11.8055 3.47153 12.1517 2.83866 12.6802 2.38034C13.2086 1.92203 13.884 1.66875 14.5835 1.66663C15.3218 1.6653 16.0331 1.94401 16.574 2.44655C17.1149 2.94908 17.4451 3.63804 17.4979 4.37445C17.5508 5.11086 17.3224 5.83991 16.8589 6.41455C16.3953 6.98919 15.7311 7.36666 15.0002 7.4708V7.7083C15.0002 8.5371 14.6709 9.33196 14.0849 9.91801C13.4988 10.5041 12.704 10.8333 11.8752 10.8333H6.66684V12.5291C7.37844 12.6318 8.02703 12.9938 8.48811 13.5454C8.94918 14.0971 9.19026 14.7996 9.16504 15.5182C9.13983 16.2367 8.85012 16.9206 8.35151 17.4386C7.8529 17.9566 7.18054 18.2722 6.46349 18.3247C5.74644 18.3773 5.03523 18.1632 4.46639 17.7235C3.89755 17.2838 3.51116 16.6495 3.3814 15.9423C3.25164 15.2351 3.38764 14.5049 3.76331 13.8919C4.13898 13.2789 4.72783 12.8262 5.41684 12.6208V7.37913C4.74711 7.17728 4.17217 6.74159 3.79671 6.15142C3.42125 5.56124 3.27025 4.85584 3.37122 4.16369C3.4722 3.47153 3.81841 2.83866 4.34683 2.38034C4.87524 1.92203 5.55069 1.66875 6.25017 1.66663C7.02372 1.66663 7.76558 1.97392 8.31257 2.5209C8.85955 3.06788 9.16684 3.80975 9.16684 4.5833ZM6.25017 6.24996C6.6922 6.24996 7.11612 6.07437 7.42868 5.76181C7.74124 5.44925 7.91684 5.02533 7.91684 4.5833C7.91684 4.14127 7.74124 3.71735 7.42868 3.40479C7.11612 3.09223 6.6922 2.91663 6.25017 2.91663C5.80814 2.91663 5.38422 3.09223 5.07166 3.40479C4.7591 3.71735 4.5835 4.14127 4.5835 4.5833C4.5835 5.02533 4.7591 5.44925 5.07166 5.76181C5.38422 6.07437 5.80814 6.24996 6.25017 6.24996ZM14.5835 6.24996C15.0255 6.24996 15.4495 6.07437 15.762 5.76181C16.0746 5.44925 16.2502 5.02533 16.2502 4.5833C16.2502 4.14127 16.0746 3.71735 15.762 3.40479C15.4495 3.09223 15.0255 2.91663 14.5835 2.91663C14.1415 2.91663 13.7176 3.09223 13.405 3.40479C13.0924 3.71735 12.9168 4.14127 12.9168 4.5833C12.9168 5.02533 13.0924 5.44925 13.405 5.76181C13.7176 6.07437 14.1415 6.24996 14.5835 6.24996ZM7.91684 15.4166C7.91684 14.9746 7.74124 14.5507 7.42868 14.2381C7.11612 13.9256 6.6922 13.75 6.25017 13.75C5.80814 13.75 5.38422 13.9256 5.07166 14.2381C4.7591 14.5507 4.5835 14.9746 4.5835 15.4166C4.5835 15.8587 4.7591 16.2826 5.07166 16.5951C5.38422 16.9077 5.80814 17.0833 6.25017 17.0833C6.6922 17.0833 7.11612 16.9077 7.42868 16.5951C7.74124 16.2826 7.91684 15.8587 7.91684 15.4166Z" fill="black"/>
</svg>
