<svg width="20" height="20" viewBox="0 0 20 20" fill="none" xmlns="http://www.w3.org/2000/svg">
<path d="M17.7359 6.89649L12.7769 6.17579L10.5601 1.68165C10.4996 1.5586 10.4 1.45899 10.2769 1.39844C9.96834 1.2461 9.59334 1.37305 9.43904 1.68165L7.22224 6.17579L2.26325 6.89649C2.12653 6.91603 2.00153 6.98048 1.90583 7.07814C1.79013 7.19705 1.72637 7.35704 1.72857 7.52294C1.73077 7.68885 1.79874 7.84709 1.91755 7.9629L5.50544 11.461L4.65779 16.4004C4.63791 16.5153 4.65062 16.6335 4.69449 16.7415C4.73835 16.8496 4.81162 16.9432 4.90597 17.0117C5.00032 17.0802 5.11198 17.1209 5.22829 17.1292C5.34461 17.1375 5.46092 17.1131 5.56404 17.0586L9.99959 14.7266L14.4351 17.0586C14.5562 17.1231 14.6969 17.1445 14.8316 17.1211C15.1715 17.0625 15.4 16.7403 15.3414 16.4004L14.4937 11.461L18.0816 7.9629C18.1793 7.8672 18.2437 7.7422 18.2633 7.60548C18.316 7.26368 18.0777 6.94728 17.7359 6.89649Z" fill="black"/>
</svg>
